<svg id="Camada_1" data-name="Camada 1" xmlns="http://www.w3.org/2000/svg" viewBox="0 0 782.58 196.61"><defs><style>.cls-1,.cls-2{fill:#fff;}.cls-2{fill-rule:evenodd;}</style></defs><path class="cls-1" d="M767.24,112.91a14.75,14.75,0,1,1-14.7-14.66A14.37,14.37,0,0,1,767.24,112.91Zm-2.42,0a12,12,0,0,0-12.28-12.36,12.45,12.45,0,1,0,12.28,12.36Zm-8,2.67,3.68,5.64h-3.6l-3.25-5h-3.72v5h-3.59V104.77h6.85c4.34,0,6.93,2.25,6.93,5.72A5.12,5.12,0,0,1,756.8,115.58ZM753,113.41c2.34,0,3.67-1.08,3.67-2.92s-1.33-2.88-3.67-2.88h-3.09v5.8Z"/><path class="cls-2" d="M76.78,16.48a85.66,85.66,0,0,0-21.47-1.27c16.4,4.34,32.09,12.41,44,24.76,23.52,24.46,23.12,57.46-7.83,72.08-2.61,1.23-3.13,2.55-1,4.79,11.37,13.27,34.61,17.94,55.35,11.57,14.43-4.44,31.81-17.5,34.83-30.19,0-.48,0-1,0-1.44-.75-12.69-11.64-25.12-20.18-33.82-10.26-10.45-38.14-37.77-83.61-46.48"/><path class="cls-1" d="M116.1,138.52C60.57,134,75,79.53,75,79.53c11.11-.45,27.67,6.69,34.74,10,5.77-15.44.44-34.19-14.34-49.57C83.7,27.79,68.26,19.77,52.1,15.39,15.44,19.9,15.89,97.63,15.89,97.63c-.06,86.7,38.36,83.76,43.58,83.7,56.63-.67,121.14-55.91,121.14-83.15C180.61,98.18,165.33,142.5,116.1,138.52Z"/><path class="cls-1" d="M645.45,45.19A7.84,7.84,0,0,1,651,58.55a7.85,7.85,0,1,1-5.54-13.36Z"/><path class="cls-1" d="M650,72.53a6.2,6.2,0,0,0-4.41-1.86h-.17a6.8,6.8,0,0,0-.8.07c-.13,0-.27,0-.39,0l-.24,0a6.07,6.07,0,0,0-3.15,1.72A6.2,6.2,0,0,0,639,77.11v50.37h12.9V77.11A6.24,6.24,0,0,0,650,72.53Z"/><path class="cls-1" d="M544.42,80.62a16.78,16.78,0,0,0-4.69-5.94,24.19,24.19,0,0,0-7.65-4.08,32.45,32.45,0,0,0-10.41-1.53,33.27,33.27,0,0,0-12.28,2.21,29,29,0,0,0-9.73,6.23,28.25,28.25,0,0,0-6.46,9.62,32,32,0,0,0-2.32,12.39,31.6,31.6,0,0,0,2.38,12.62,26.86,26.86,0,0,0,6.51,9.28,27.41,27.41,0,0,0,9.62,5.72,35.58,35.58,0,0,0,11.83,1.92,46.62,46.62,0,0,0,8.32-.68,55.14,55.14,0,0,0,6.68-1.58c.94-.3,1.8-.6,2.59-.92h0A5.23,5.23,0,0,0,542,121a5.16,5.16,0,0,0-.31-1.78,4.9,4.9,0,0,0-.68-1.3,5.13,5.13,0,0,0-.53-.64,5.07,5.07,0,0,0-3.71-1.51,5.34,5.34,0,0,0-2,.38h0c-.38.14-.75.29-1.17.43a30.9,30.9,0,0,1-4.47,1.14,30.58,30.58,0,0,1-5.43.45q-8.72,0-13.42-3.57a14.08,14.08,0,0,1-5.6-9.34c1.51.08,2.93.14,4.25.17s2.73.06,4.24.06a81.85,81.85,0,0,0,16.07-1.3,31.3,31.3,0,0,0,10.08-3.62,13.08,13.08,0,0,0,5.21-5.55A17.15,17.15,0,0,0,546,87.86,16.86,16.86,0,0,0,544.42,80.62Zm-11.66,10.3a6.34,6.34,0,0,1-2.83,2.83,20.44,20.44,0,0,1-6,2,51.73,51.73,0,0,1-10.08.79h-4.75c-1.59,0-3.25,0-5-.11a20.25,20.25,0,0,1,1.3-6.46,17.66,17.66,0,0,1,3.34-5.6,16,16,0,0,1,5.32-3.91A17.3,17.3,0,0,1,521.45,79,15.9,15.9,0,0,1,530,81.18a7.12,7.12,0,0,1,3.45,6.46A8.14,8.14,0,0,1,532.76,90.92Z"/><path class="cls-1" d="M620.61,46a6.4,6.4,0,0,0-10.94,4.51V77.79a22.87,22.87,0,0,0-7.81-6.17,25,25,0,0,0-11.54-2.55,29.41,29.41,0,0,0-11.49,2.21,27.37,27.37,0,0,0-9.17,6.23,28.89,28.89,0,0,0-6.11,9.5,32.11,32.11,0,0,0-2.21,12.06,30.74,30.74,0,0,0,2.32,12,28.38,28.38,0,0,0,6.4,9.5,29.47,29.47,0,0,0,9.67,6.23A32.49,32.49,0,0,0,592,129.06a35.11,35.11,0,0,0,12.12-2,26.29,26.29,0,0,0,9.62-6.12,28.39,28.39,0,0,0,6.39-10.18,40.42,40.42,0,0,0,2.32-14.38V50.5A6.16,6.16,0,0,0,620.61,46Zm-12.24,60.58a17.17,17.17,0,0,1-3.57,5.77,16.16,16.16,0,0,1-5.49,3.74,18.11,18.11,0,0,1-7.07,1.35,17.35,17.35,0,0,1-7.13-1.41,17.07,17.07,0,0,1-5.49-3.85,16.45,16.45,0,0,1-3.56-5.77,20.53,20.53,0,0,1-1.25-7.3,21,21,0,0,1,1.25-7.36,16.52,16.52,0,0,1,3.56-5.83A18,18,0,0,1,599.31,82a16,16,0,0,1,5.49,3.91,18.53,18.53,0,0,1,3.57,5.88,20.05,20.05,0,0,1,1.3,7.25A20.71,20.71,0,0,1,608.37,106.54Z"/><path class="cls-1" d="M404.39,83.05a21.32,21.32,0,0,0-5.71-7.58,25.66,25.66,0,0,0-8.77-4.76,36.18,36.18,0,0,0-11.1-1.64,35.5,35.5,0,0,0-11,1.64,25.61,25.61,0,0,0-8.72,4.76,22,22,0,0,0-5.77,7.58,23.56,23.56,0,0,0-2.1,10.13V121a6.46,6.46,0,1,0,12.91,0V96.47q0-7.71,3.68-11.72t11-4q7.24,0,11,4t3.74,11.72V121a6.45,6.45,0,1,0,12.9,0V93.18A24.15,24.15,0,0,0,404.39,83.05Z"/><path class="cls-1" d="M470.51,98.9q-5.2-3.91-14.6-5.15l-11.55-1.47a18,18,0,0,1-7.13-2.1,4.91,4.91,0,0,1-2.49-4.47q0-6.9,13.13-6.9a41.36,41.36,0,0,1,14.6,2.43l.78.32a2.75,2.75,0,0,0,.36.15,5.16,5.16,0,0,0,1.78.31,5.08,5.08,0,0,0,3.6-8.66,5,5,0,0,0-1.62-1.09h0c-.42-.2-.84-.4-1.31-.58q-6.51-2.61-18.28-2.61a43.79,43.79,0,0,0-11.94,1.42,22,22,0,0,0-8,3.9,15.24,15.24,0,0,0-4.47,5.72A16.74,16.74,0,0,0,422,87a15.6,15.6,0,0,0,1.53,7.18,14.42,14.42,0,0,0,4.24,5,21.54,21.54,0,0,0,6.51,3.23,41.71,41.71,0,0,0,8.32,1.64l8.83,1q6.11.68,8.49,2.32a5.48,5.48,0,0,1,2.38,4.81,5.36,5.36,0,0,1-3.74,5.26,25.67,25.67,0,0,1-9.62,1.53,48.62,48.62,0,0,1-8.38-.68,51.82,51.82,0,0,1-6.84-1.64c-1.4-.45-2.59-.88-3.67-1.31l-.18-.08A5.12,5.12,0,0,0,428,115a5.07,5.07,0,0,0-2,9.72l.09,0c1.11.44,2.35.89,3.78,1.35a67.28,67.28,0,0,0,8.66,2.1,62.55,62.55,0,0,0,11.09.9q12.68,0,19.41-5.09a16.18,16.18,0,0,0,6.74-13.58Q475.72,102.8,470.51,98.9Z"/><path class="cls-1" d="M259.84,98.9q-5.22-3.91-14.61-5.15l-11.54-1.47a18,18,0,0,1-7.13-2.1,4.91,4.91,0,0,1-2.49-4.47q0-6.9,13.13-6.9a41.47,41.47,0,0,1,14.6,2.43c.29.11.5.21.77.32a2.39,2.39,0,0,0,.37.15,5.16,5.16,0,0,0,1.78.31,5.07,5.07,0,0,0,2-9.75h0c-.41-.2-.84-.4-1.31-.58q-6.51-2.61-18.28-2.61a43.84,43.84,0,0,0-11.94,1.42,22.2,22.2,0,0,0-8,3.9,15.24,15.24,0,0,0-4.47,5.72A16.9,16.9,0,0,0,211.28,87a15.6,15.6,0,0,0,1.53,7.18,14.31,14.31,0,0,0,4.24,5,21.54,21.54,0,0,0,6.51,3.23,41.71,41.71,0,0,0,8.32,1.64l8.83,1q6.1.68,8.49,2.32a5.48,5.48,0,0,1,2.37,4.81,5.35,5.35,0,0,1-3.73,5.26,25.67,25.67,0,0,1-9.62,1.53,48.53,48.53,0,0,1-8.38-.68,52,52,0,0,1-6.85-1.64c-1.4-.45-2.58-.88-3.67-1.31l-.17-.08a5.18,5.18,0,0,0-1.87-.33,5.08,5.08,0,0,0-3.59,8.64,5,5,0,0,0,1.59,1.08l.09,0c1.11.44,2.35.89,3.77,1.35a67.69,67.69,0,0,0,8.66,2.1,62.63,62.63,0,0,0,11.09.9q12.69,0,19.42-5.09A16.2,16.2,0,0,0,265,110.39Q265,102.8,259.84,98.9Z"/><path class="cls-1" d="M334.26,80.62a16.81,16.81,0,0,0-4.7-5.94,24.13,24.13,0,0,0-7.64-4.08,32.49,32.49,0,0,0-10.41-1.53,33.29,33.29,0,0,0-12.29,2.21,29.14,29.14,0,0,0-9.73,6.23A28.23,28.23,0,0,0,283,87.13a32,32,0,0,0-2.32,12.39,31.43,31.43,0,0,0,2.38,12.62,26.73,26.73,0,0,0,6.51,9.28,27.37,27.37,0,0,0,9.61,5.72,35.62,35.62,0,0,0,11.83,1.92,46.62,46.62,0,0,0,8.32-.68,54.69,54.69,0,0,0,6.68-1.58c.94-.3,1.81-.6,2.59-.92h0a5.22,5.22,0,0,0,3.2-4.84,5.41,5.41,0,0,0-.31-1.78,5.21,5.21,0,0,0-.68-1.3,6.2,6.2,0,0,0-.53-.64,5.09,5.09,0,0,0-3.71-1.51,5.3,5.3,0,0,0-2,.38h0c-.38.14-.75.29-1.17.43a30.16,30.16,0,0,1-9.91,1.59q-8.71,0-13.41-3.57a14,14,0,0,1-5.6-9.34c1.51.08,2.92.14,4.24.17s2.74.06,4.25.06a81.92,81.92,0,0,0,16.07-1.3,31.24,31.24,0,0,0,10.07-3.62,13,13,0,0,0,5.21-5.55,17.83,17.83,0,0,0-.11-14.43ZM322.6,90.92a6.34,6.34,0,0,1-2.83,2.83,20.52,20.52,0,0,1-6,2,51.62,51.62,0,0,1-10.07.79h-4.76c-1.58,0-3.24,0-5-.11a20.25,20.25,0,0,1,1.3-6.46,17.85,17.85,0,0,1,3.34-5.6,16.13,16.13,0,0,1,5.32-3.91A17.33,17.33,0,0,1,311.28,79a15.87,15.87,0,0,1,8.54,2.15,7.11,7.11,0,0,1,3.46,6.46A8.31,8.31,0,0,1,322.6,90.92Z"/><path class="cls-1" d="M722.42,93.18a25.92,25.92,0,0,0-2.2-11.2,19,19,0,0,0-6.17-7.47,26.56,26.56,0,0,0-9.46-4.13,52.59,52.59,0,0,0-12.16-1.31,51.36,51.36,0,0,0-9.17.68,19.59,19.59,0,0,0-5.78,1.87c-.26.15-.5.3-.73.46l-.24.14a5.7,5.7,0,0,0-.71.59,5.09,5.09,0,0,0,3.61,8.7,5.15,5.15,0,0,0,1.91-.35l.11,0,.41-.16a30.09,30.09,0,0,1,10.36-1.47,40,40,0,0,1,7,.56,14.63,14.63,0,0,1,5.43,2,10.16,10.16,0,0,1,3.57,4.08,14.71,14.71,0,0,1,1.3,6.56q-1.93-.23-5.77-.51t-8.16-.28a57.4,57.4,0,0,0-12.67,1.19,22.6,22.6,0,0,0-8.43,3.56,13.51,13.51,0,0,0-4.64,5.89,21.53,21.53,0,0,0-1.42,8.15,20.26,20.26,0,0,0,1.19,6.84,13.08,13.08,0,0,0,4.41,5.89,24.69,24.69,0,0,0,8.83,4.08,56.73,56.73,0,0,0,14.43,1.52c3,0,5.77-.07,8.49-.22s5.17-.32,7.36-.51l2.67-.25h0a7,7,0,0,0,4.69-1.92,6.44,6.44,0,0,0,1.92-4.72s0-.06,0-.09h0Zm-12.79,25.47c-.68.15-2,.36-4.07.62a66.41,66.41,0,0,1-8.27.4,40.84,40.84,0,0,1-7.75-.62,14.05,14.05,0,0,1-4.92-1.81,6.66,6.66,0,0,1-2.55-2.89,9.32,9.32,0,0,1-.74-3.74q0-5,3.51-7.3T696.05,101a69,69,0,0,1,9.34.46c2.07.3,3.49.52,4.24.67Z"/></svg>